<svg width="16" height="20" viewBox="0 0 16 20" fill="none" xmlns="http://www.w3.org/2000/svg">
<path fill-rule="evenodd" clip-rule="evenodd" d="M7.89005 16.5895C11.0635 13.7027 13.0449 9.73508 13.4459 5.46381L13.4471 5.45086L13.5399 4.61978C13.5976 4.10632 13.4768 3.58863 13.1979 3.1537C12.9189 2.71877 12.4988 2.39311 12.0081 2.23142L9.94212 1.55084C9.8813 1.53087 9.81513 1.53498 9.75726 1.56234C9.69938 1.5897 9.65421 1.63822 9.63104 1.6979L8.59346 4.36091C8.58122 4.39234 8.57548 4.42591 8.57656 4.45961C8.57764 4.49331 8.58553 4.52645 8.59974 4.55702C8.61396 4.5876 8.63422 4.61498 8.6593 4.63752C8.68438 4.66006 8.71375 4.6773 8.74566 4.68819L10.121 5.16001C10.2832 5.21554 10.4215 5.32497 10.5129 5.47008C10.6042 5.61519 10.643 5.78721 10.6229 5.95749C10.2411 9.18337 8.69925 12.1603 6.28487 14.3336C6.15739 14.4482 5.99447 14.5158 5.82326 14.5249C5.65204 14.534 5.48287 14.4842 5.34391 14.3838L4.16434 13.5339C4.13703 13.5142 4.106 13.5001 4.07312 13.4926C4.04024 13.4852 4.00619 13.4844 3.97301 13.4905C3.93983 13.4965 3.90822 13.5092 3.88007 13.5277C3.85192 13.5463 3.82782 13.5703 3.80921 13.5985L2.23259 15.9815C2.19721 16.0349 2.18365 16.0998 2.19469 16.1628C2.20574 16.2259 2.24056 16.2823 2.29197 16.3204L4.0486 17.6228C4.46606 17.9326 4.9779 18.0882 5.49714 18.0633C6.01638 18.0384 6.51098 17.8345 6.89688 17.4862L7.88909 16.5898L7.89005 16.5895ZM14.9385 5.61092C14.5008 10.252 12.3469 14.5628 8.8983 17.6994L8.897 17.7019L7.90193 18.5992C7.25891 19.1797 6.43475 19.5196 5.56949 19.5612C4.70423 19.6029 3.85123 19.3437 3.15542 18.8277L1.39878 17.5253C1.03908 17.2586 0.795332 16.8641 0.717714 16.423C0.640095 15.982 0.734513 15.5279 0.981531 15.1544L2.5588 12.7701C2.68892 12.5734 2.85748 12.4049 3.05434 12.275C3.2512 12.145 3.4723 12.0562 3.70435 12.0139C3.9364 11.9715 4.17462 11.9766 4.40469 12.0286C4.63476 12.0807 4.85193 12.1787 5.04315 12.3168L5.71869 12.8053C7.4691 11.0608 8.63256 8.81434 9.04737 6.37815L8.25836 6.10728C8.03536 6.03075 7.83012 5.90996 7.65496 5.75214C7.47981 5.59433 7.33835 5.40275 7.23907 5.1889C7.1398 4.97506 7.08476 4.74336 7.07726 4.50772C7.06975 4.27207 7.10994 4.03734 7.19541 3.81761L8.2327 1.15365C8.3952 0.736095 8.71167 0.396776 9.11691 0.20561C9.52214 0.0144432 9.98526 -0.0140074 10.4108 0.126121L12.4777 0.806391C13.2956 1.07577 13.9958 1.61839 14.4608 2.3431C14.9258 3.06782 15.1272 3.93047 15.0312 4.78616L14.9385 5.61092Z" fill="black"/>
</svg>
