<svg width="20" height="20" viewBox="0 0 20 20" fill="none" xmlns="http://www.w3.org/2000/svg">
<g clip-path="url(#clip0_2_2618)">
<path d="M19.9967 11.1824C19.9986 10.7712 19.9339 9.21963 19.8845 8.77588C19.3158 3.68307 15.1823 -0.0131836 10.0567 -0.0131836C4.71795 -0.0131836 0.392344 4.10057 0.0988867 9.55525C0.0926367 9.67432 0.0488867 10.519 0.0457617 11.0218L0.0441992 11.3015C0.0185547 11.4171 0.00292969 11.5365 0.00292969 11.6596V15.8521C0.00292969 16.7678 0.747617 17.5124 1.66324 17.5124H3.34855C4.26418 17.5124 5.00916 16.7678 5.00916 15.8521V11.6599C5.00916 10.7443 4.26385 9.99963 3.34854 9.99963H1.66293C1.55019 9.99965 1.43775 10.0111 1.3273 10.0337C1.33668 9.8309 1.34512 9.67088 1.34732 9.62244C1.60451 4.8415 5.39295 1.23682 10.0567 1.23682C14.5348 1.23682 18.1451 4.46619 18.642 8.91494C18.6629 9.10057 18.6898 9.57244 18.7114 10.0462C18.5904 10.0181 18.4657 9.99961 18.3364 9.99961H16.6707C15.7551 9.99961 15.0104 10.7443 15.0104 11.6599V15.833C15.0104 16.4652 15.3698 17.0099 15.8911 17.2899L11.8786 18.8652V18.7634C11.8786 18.4184 11.5986 18.1384 11.2536 18.1384H9.37859C9.03358 18.1384 8.75359 18.4184 8.75359 18.7634V19.3884C8.75359 19.7334 9.03358 20.0134 9.37859 20.0134H11.2536C11.2589 20.0134 11.2636 20.0118 11.2689 20.0118L12.3892 20.0074L18.8258 17.4805C18.9102 17.4455 18.9818 17.3934 19.0405 17.3309C19.6039 17.0649 19.9974 16.4962 19.9974 15.833V11.6599C19.9974 11.558 19.9849 11.459 19.9671 11.3624C19.9842 11.3049 19.9964 11.2452 19.9967 11.1824L19.9967 11.1824ZM1.66295 11.2496H3.3483C3.57486 11.2496 3.75891 11.4334 3.75891 11.6599V15.8524C3.75891 16.079 3.57453 16.2628 3.34826 16.2628H1.66297C1.43641 16.2628 1.25268 16.079 1.25268 15.8524V11.6599C1.25297 11.4334 1.4367 11.2496 1.66295 11.2496ZM16.2602 11.6599C16.2602 11.4334 16.4439 11.2496 16.6705 11.2496H18.3361C18.5627 11.2496 18.7467 11.4334 18.7467 11.6599V15.8331C18.7467 16.0596 18.5623 16.2434 18.3361 16.2434H16.6705C16.4439 16.2434 16.2602 16.0596 16.2602 15.8331V11.6599Z" fill="#C7C7C7"/>
</g>
<defs>
<clipPath id="clip0_2_2618">
<rect width="20" height="20" fill="white"/>
</clipPath>
</defs>
</svg>
