<svg width="39" height="37" viewBox="0 0 39 37" fill="none" xmlns="http://www.w3.org/2000/svg">
<path d="M7.32965 33V32.29H8.40965V33H7.32965ZM3.60965 33C2.94965 33 2.39965 32.9233 1.95965 32.77C1.51965 32.6167 1.18965 32.3833 0.969649 32.07C0.749649 31.7567 0.639649 31.3567 0.639649 30.87C0.639649 30.71 0.649649 30.5367 0.669649 30.35C0.696316 30.1633 0.726316 29.9833 0.759649 29.81C0.792982 29.63 0.822982 29.4767 0.849649 29.35C0.876316 29.2167 0.892982 29.1267 0.899649 29.08L1.65965 29.22C1.63965 29.3267 1.60965 29.4733 1.56965 29.66C1.53632 29.8467 1.50298 30.0467 1.46965 30.26C1.43632 30.4733 1.41965 30.6767 1.41965 30.87C1.41965 31.1167 1.45632 31.33 1.52965 31.51C1.60965 31.69 1.73298 31.84 1.89965 31.96C2.07298 32.0733 2.29965 32.1567 2.57965 32.21C2.85965 32.2633 3.20298 32.29 3.60965 32.29H6.54965V28H7.32965V33H3.60965ZM8.40965 33V32.29C8.44965 32.29 8.48298 32.3 8.50965 32.32C8.53632 32.3333 8.55632 32.3567 8.56965 32.39C8.58298 32.4167 8.59298 32.4533 8.59965 32.5C8.60632 32.54 8.60965 32.5867 8.60965 32.64C8.60965 32.6933 8.60632 32.7433 8.59965 32.79C8.59298 32.8367 8.58298 32.8767 8.56965 32.91C8.55632 32.9367 8.53632 32.96 8.50965 32.98C8.48298 32.9933 8.44965 33 8.40965 33ZM3.59965 34.8V33.9H4.37965V34.8H3.59965ZM10.1035 33V32.29H11.1835V33H10.1035ZM8.11348 33C8.07348 33 8.04014 32.9933 8.01348 32.98C7.98681 32.96 7.96681 32.9367 7.95348 32.91C7.94014 32.8767 7.93014 32.8367 7.92348 32.79C7.91681 32.7433 7.91348 32.6933 7.91348 32.64C7.91348 32.5667 7.92014 32.5067 7.93348 32.46C7.94014 32.4067 7.96014 32.3667 7.99348 32.34C8.02014 32.3067 8.06014 32.29 8.11348 32.29V33ZM9.32348 33V25.83H10.1035V33H9.32348ZM8.11348 33V32.29H9.32348V33H8.11348ZM11.1835 33V32.29C11.2235 32.29 11.2568 32.3 11.2835 32.32C11.3101 32.3333 11.3301 32.3567 11.3435 32.39C11.3568 32.4167 11.3668 32.4533 11.3735 32.5C11.3801 32.54 11.3835 32.5867 11.3835 32.64C11.3835 32.6933 11.3801 32.7433 11.3735 32.79C11.3668 32.8367 11.3568 32.8767 11.3435 32.91C11.3301 32.9367 11.3101 32.96 11.2835 32.98C11.2568 32.9933 11.2235 33 11.1835 33ZM17.2899 33V32.29H18.3699V33H17.2899ZM10.8799 33V32.29H17.5099L16.7899 32.94V30.59C16.7899 30.17 16.7299 29.8233 16.6099 29.55C16.4965 29.27 16.3232 29.06 16.0899 28.92C15.8632 28.78 15.5765 28.71 15.2299 28.71C14.9365 28.71 14.6632 28.76 14.4099 28.86C14.1632 28.9533 13.9332 29.08 13.7199 29.24C13.5065 29.3933 13.3065 29.5667 13.1199 29.76C12.9399 29.9467 12.7732 30.1367 12.6199 30.33C12.4665 30.5233 12.3265 30.7 12.1999 30.86L11.9399 30.15C12.1465 29.89 12.3565 29.6333 12.5699 29.38C12.7832 29.1267 13.0165 28.8967 13.2699 28.69C13.5232 28.4833 13.8099 28.3167 14.1299 28.19C14.4499 28.0633 14.8165 28 15.2299 28C15.7032 28 16.0899 28.08 16.3899 28.24C16.6965 28.4 16.9332 28.6133 17.0999 28.88C17.2732 29.14 17.3932 29.42 17.4599 29.72C17.5265 30.02 17.5599 30.31 17.5599 30.59V33H10.8799ZM11.5399 32.29V25.83H12.3199V32.29H11.5399ZM10.8799 33C10.8399 33 10.8065 32.9933 10.7799 32.98C10.7532 32.96 10.7332 32.9367 10.7199 32.91C10.7065 32.8767 10.6965 32.8367 10.6899 32.79C10.6832 32.7433 10.6799 32.6933 10.6799 32.64C10.6799 32.5667 10.6865 32.5067 10.6999 32.46C10.7065 32.4067 10.7265 32.3667 10.7599 32.34C10.7865 32.3067 10.8265 32.29 10.8799 32.29V33ZM18.3699 33V32.29C18.4099 32.29 18.4432 32.3 18.4699 32.32C18.4965 32.3333 18.5165 32.3567 18.5299 32.39C18.5432 32.4167 18.5532 32.4533 18.5599 32.5C18.5665 32.54 18.5699 32.5867 18.5699 32.64C18.5699 32.6933 18.5665 32.7433 18.5599 32.79C18.5532 32.8367 18.5432 32.8767 18.5299 32.91C18.5165 32.9367 18.4965 32.96 18.4699 32.98C18.4432 32.9933 18.4099 33 18.3699 33ZM19.2801 33V25.83H20.0601V33H19.2801ZM18.0701 33V32.29H19.2801V33H18.0701ZM18.0701 33C18.0301 33 17.9968 32.9933 17.9701 32.98C17.9435 32.96 17.9235 32.9367 17.9101 32.91C17.8968 32.8767 17.8868 32.8367 17.8801 32.79C17.8735 32.7433 17.8701 32.6933 17.8701 32.64C17.8701 32.5667 17.8768 32.5067 17.8901 32.46C17.8968 32.4067 17.9168 32.3667 17.9501 32.34C17.9768 32.3067 18.0168 32.29 18.0701 32.29V33ZM21.484 33V25.83H22.254V33H21.484ZM29.0668 35.33L29.1868 35.97C28.8735 36.0367 28.5835 36.0867 28.3168 36.12C28.0568 36.16 27.8102 36.18 27.5768 36.18C27.0902 36.18 26.6668 36.1033 26.3068 35.95C25.9535 35.8033 25.6802 35.5833 25.4868 35.29C25.3002 34.9967 25.2068 34.6433 25.2068 34.23C25.2068 33.91 25.2635 33.6133 25.3768 33.34C25.4902 33.0667 25.6535 32.83 25.8668 32.63C26.0802 32.4233 26.3368 32.26 26.6368 32.14L26.9468 32.01C27.2068 31.9033 27.4702 31.7833 27.7368 31.65C28.0035 31.5167 28.2602 31.37 28.5068 31.21C28.7535 31.0433 28.9735 30.8633 29.1668 30.67C29.3602 30.47 29.5135 30.2567 29.6268 30.03C29.7402 29.7967 29.7968 29.5467 29.7968 29.28V28.68L30.2168 29.31C29.8368 29.11 29.4568 28.96 29.0768 28.86C28.7035 28.76 28.3402 28.71 27.9868 28.71C27.6335 28.71 27.2702 28.76 26.8968 28.86C26.5235 28.96 26.1468 29.11 25.7668 29.31L26.1868 28.68V29.28C26.1868 29.52 26.2502 29.7767 26.3768 30.05C26.5035 30.3233 26.6768 30.5933 26.8968 30.86C27.1235 31.12 27.3902 31.36 27.6968 31.58C28.0035 31.7933 28.3402 31.9667 28.7068 32.1C29.0735 32.2267 29.4568 32.29 29.8568 32.29H31.1168V33H29.8568C29.3368 33 28.8502 32.9167 28.3968 32.75C27.9435 32.5833 27.5335 32.3633 27.1668 32.09C26.8002 31.81 26.4835 31.5067 26.2168 31.18C25.9568 30.8467 25.7568 30.5167 25.6168 30.19C25.4768 29.8567 25.4068 29.5533 25.4068 29.28V28.68C25.6935 28.5267 25.9835 28.4 26.2768 28.3C26.5702 28.2 26.8602 28.1267 27.1468 28.08C27.4402 28.0267 27.7202 28 27.9868 28C28.2602 28 28.5402 28.0267 28.8268 28.08C29.1135 28.1267 29.4035 28.2 29.6968 28.3C29.9902 28.4 30.2802 28.5267 30.5668 28.68V29.28C30.5668 29.6733 30.4868 30.03 30.3268 30.35C30.1668 30.6633 29.9568 30.9433 29.6968 31.19C29.4435 31.4367 29.1668 31.6533 28.8668 31.84C28.5668 32.0267 28.2768 32.1867 27.9968 32.32C27.9302 32.3467 27.8402 32.3867 27.7268 32.44C27.6202 32.4867 27.5068 32.5367 27.3868 32.59C27.2735 32.6433 27.1702 32.69 27.0768 32.73C26.9902 32.7633 26.9368 32.7867 26.9168 32.8C26.7568 32.8733 26.6068 32.97 26.4668 33.09C26.3268 33.21 26.2102 33.36 26.1168 33.54C26.0302 33.7267 25.9868 33.9533 25.9868 34.22C25.9868 34.6267 26.1135 34.9367 26.3668 35.15C26.6268 35.3633 27.0302 35.47 27.5768 35.47C27.7368 35.47 27.9368 35.4567 28.1768 35.43C28.4235 35.41 28.7202 35.3767 29.0668 35.33ZM31.1168 33V32.29C31.1568 32.29 31.1902 32.3 31.2168 32.32C31.2435 32.3333 31.2635 32.3567 31.2768 32.39C31.2902 32.4167 31.3002 32.4533 31.3068 32.5C31.3135 32.54 31.3168 32.5867 31.3168 32.64C31.3168 32.6933 31.3135 32.7433 31.3068 32.79C31.3002 32.8367 31.2902 32.8767 31.2768 32.91C31.2635 32.9367 31.2435 32.96 31.2168 32.98C31.1902 32.9933 31.1568 33 31.1168 33ZM32.6754 33V32.29H33.7554V33H32.6754ZM30.8154 33C30.7754 33 30.7421 32.9933 30.7154 32.98C30.6888 32.96 30.6688 32.9367 30.6554 32.91C30.6421 32.8767 30.6321 32.8367 30.6254 32.79C30.6188 32.7433 30.6154 32.6933 30.6154 32.64C30.6154 32.5667 30.6221 32.5067 30.6354 32.46C30.6421 32.4067 30.6621 32.3667 30.6954 32.34C30.7221 32.3067 30.7621 32.29 30.8154 32.29V33ZM30.8154 33V32.29H32.2554L31.8954 32.58V28H32.6754V33H30.8154ZM33.7554 33V32.29C33.7954 32.29 33.8288 32.3 33.8554 32.32C33.8821 32.3333 33.9021 32.3567 33.9154 32.39C33.9288 32.4167 33.9388 32.4533 33.9454 32.5C33.9521 32.54 33.9554 32.5867 33.9554 32.64C33.9554 32.6933 33.9521 32.7433 33.9454 32.79C33.9388 32.8367 33.9288 32.8767 33.9154 32.91C33.9021 32.9367 33.8821 32.96 33.8554 32.98C33.8288 32.9933 33.7954 33 33.7554 33ZM31.8954 34.8V33.9H32.6754V34.8H31.8954ZM35.3149 33V32.29H36.3949V33H35.3149ZM36.3949 33V32.29C36.4349 32.29 36.4682 32.3 36.4949 32.32C36.5215 32.3333 36.5415 32.3567 36.5549 32.39C36.5682 32.4167 36.5782 32.4533 36.5849 32.5C36.5915 32.54 36.5949 32.5867 36.5949 32.64C36.5949 32.6933 36.5915 32.7433 36.5849 32.79C36.5782 32.8367 36.5682 32.8767 36.5549 32.91C36.5415 32.9367 36.5215 32.96 36.4949 32.98C36.4682 32.9933 36.4349 33 36.3949 33ZM33.4549 33C33.4149 33 33.3815 32.9933 33.3549 32.98C33.3282 32.96 33.3082 32.9367 33.2949 32.91C33.2815 32.8767 33.2715 32.8367 33.2649 32.79C33.2582 32.7433 33.2549 32.6933 33.2549 32.64C33.2549 32.5667 33.2615 32.5067 33.2749 32.46C33.2815 32.4067 33.3015 32.3667 33.3349 32.34C33.3615 32.3067 33.4015 32.29 33.4549 32.29V33ZM33.4549 33V32.29H34.8949L34.5349 32.58V28H35.3149V33H33.4549ZM33.8549 27.1V26.2H34.6349V27.1H33.8549ZM35.2249 27.1V26.2H36.0049V27.1H35.2249ZM36.0943 33V32.29H37.5343L37.1743 32.58V28H37.9543V33H36.0943ZM36.0943 33C36.0543 33 36.021 32.9933 35.9943 32.98C35.9677 32.96 35.9477 32.9367 35.9343 32.91C35.921 32.8767 35.911 32.8367 35.9043 32.79C35.8977 32.7433 35.8943 32.6933 35.8943 32.64C35.8943 32.5667 35.901 32.5067 35.9143 32.46C35.921 32.4067 35.941 32.3667 35.9743 32.34C36.001 32.3067 36.041 32.29 36.0943 32.29V33ZM36.4943 27.1V26.2H37.2743V27.1H36.4943ZM37.8643 27.1V26.2H38.6443V27.1H37.8643Z" fill="white"/>
<g clip-path="url(#clip0_2_468)">
<path d="M33 12.4007C32.9423 12.4345 32.9593 12.4978 32.9423 12.5473C32.7619 13.0843 32.2895 13.4314 31.7212 13.4351C31.1899 13.4389 30.6586 13.442 30.1279 13.432C29.9813 13.4295 29.9399 13.469 29.9481 13.6137C29.9606 13.8399 29.9456 14.068 29.9524 14.2948C29.9625 14.6181 29.8691 14.8963 29.6216 15.1118C29.5646 15.1619 29.5308 15.1964 29.5728 15.2835C30.064 16.3091 30.1191 17.3906 29.9481 18.492C29.9092 18.7445 29.9938 18.9695 30.0157 19.2069C30.0308 19.3705 30.0533 19.534 30.0546 19.6975C30.0558 19.9876 29.8992 20.1756 29.6116 20.1505C29.3002 20.1236 29.2219 20.2558 29.1467 20.5296C28.7733 21.8892 27.5371 22.7808 26.1393 22.7313C24.8078 22.6843 23.6406 21.6874 23.3486 20.3366C23.3198 20.2025 23.2741 20.1593 23.1368 20.1599C20.8011 20.1637 18.4653 20.1637 16.1295 20.1599C15.9898 20.1599 15.9478 20.2019 15.9284 20.3404C15.8676 20.7827 15.7003 20.8999 15.2718 20.7783C15.0475 20.7144 14.951 20.7507 14.8426 20.9763C14.3031 22.1016 13.0287 22.6899 11.8245 22.3986C10.6071 22.1041 9.73681 20.9957 9.75937 19.7458C9.76313 19.5584 9.713 19.4782 9.53569 19.4575C9.45111 19.4482 9.36715 19.425 9.28507 19.4012C9.05262 19.3329 8.96052 19.1712 9.01565 18.9363C9.36903 17.4275 10.7337 16.2972 12.2806 16.2459C12.4504 16.2402 12.5206 16.1863 12.5638 16.0253C12.6941 15.5353 12.842 15.0498 12.9823 14.5629C13.0807 14.2208 13.2373 14.0843 13.4635 14.1469C13.696 14.2108 13.7599 14.4076 13.6621 14.7484C13.5086 15.2803 13.3608 15.8148 13.1991 16.3442C13.1622 16.4658 13.1759 16.5435 13.2599 16.6368C14.07 17.5378 14.877 18.4425 15.6815 19.3485C15.7492 19.425 15.8162 19.4657 15.9209 19.4601C16.0762 19.4525 16.2316 19.4582 16.4152 19.4582C15.8131 18.0378 15.3375 16.6074 15.2285 15.0767C15.1195 13.5398 15.3795 12.0561 15.8576 10.563C15.5387 10.563 15.2398 10.563 14.9416 10.563C14.8144 10.563 14.83 10.6739 14.8087 10.7479C14.6051 11.444 14.404 12.1413 14.2022 12.838C14.1978 12.8531 14.1966 12.8687 14.1922 12.8838C14.1108 13.1545 13.9522 13.2729 13.7436 13.219C13.5168 13.1601 13.4303 12.9728 13.5099 12.6939C13.6534 12.1914 13.8025 11.6902 13.9485 11.1883C14.0068 10.9878 14.0613 10.7855 14.1233 10.5624C13.9923 10.5624 13.8846 10.5649 13.7762 10.5624C13.4911 10.5555 13.3595 10.4283 13.3583 10.1451C13.3551 9.55054 13.3533 8.95532 13.3595 8.36072C13.3645 7.89331 13.6559 7.66212 14.1001 7.79933C14.8589 8.03366 15.6126 8.28428 16.3626 8.54555C16.637 8.64141 16.9064 8.65958 17.189 8.63327C17.7021 8.58502 18.2159 8.54242 18.7297 8.50545C18.8293 8.49793 18.9114 8.47475 18.9791 8.4027C18.9841 8.39706 18.9903 8.39205 18.9966 8.38703C19.2428 8.17087 19.5655 7.99669 19.7146 7.72665C19.8644 7.45598 19.7535 7.08193 19.8211 6.75863C19.8575 6.5832 19.9609 6.36516 19.8944 6.24173C19.8305 6.12394 19.583 6.11078 19.422 6.03935C18.4584 5.61204 17.8707 4.61332 17.9841 3.5814C18.0004 3.43353 17.9759 3.39468 17.8237 3.39343C17.5167 3.39092 17.4039 3.25997 17.4108 2.95547C17.4471 1.29386 18.8224 -0.0306661 20.4784 3.48261e-05C21.89 0.0263499 23.1707 1.18234 23.3398 2.59145C23.4576 3.5745 23.2502 4.47047 22.608 5.24489C22.5629 5.2994 22.4802 5.34263 22.5905 5.42846C23.6876 6.27807 24.2421 7.45974 24.5873 8.75983C24.8843 9.87885 24.9795 11.0223 24.9426 12.1777C24.9369 12.3562 24.9006 12.5335 24.8761 12.7309C25.3373 12.7309 25.7972 12.7253 26.2564 12.7334C26.4388 12.7365 26.383 12.6137 26.3836 12.5267C26.3861 11.1257 26.3842 9.72472 26.3861 8.32313C26.3861 8.14331 26.3767 7.95973 26.4106 7.78555C26.5296 7.18093 27.0434 6.76615 27.6649 6.76427C29.0089 6.76114 30.3522 6.76176 31.6961 6.76427C32.3039 6.7649 32.7732 7.11702 32.9517 7.6972C32.963 7.73354 32.9586 7.77615 33 7.79682V12.4001V12.4007Z" fill="white"/>
<path d="M16.8068 18.5603C17.9778 18.5603 19.1025 18.5603 20.2271 18.5603C20.3361 18.5603 20.4458 18.561 20.5548 18.5553C20.9614 18.5328 21.1626 18.3316 21.1726 17.9137C21.1832 17.4833 21.1757 17.0528 21.1757 16.6224C21.1757 16.2778 21.1876 15.9332 21.1713 15.5899C21.1619 15.3912 21.2052 15.3242 21.4219 15.328C22.234 15.343 23.0466 15.333 23.8586 15.3348C24.0635 15.3348 24.2352 15.2853 24.284 15.056C24.3379 14.8048 24.1706 14.6325 23.8661 14.6306C23.1631 14.6268 22.4601 14.6294 21.7572 14.6294C21.6087 14.6294 21.4602 14.6243 21.3123 14.6312C21.2102 14.6362 21.1826 14.6024 21.1807 14.4984C21.1745 14.1488 21.2271 14.0918 21.5698 14.0849C22.2089 14.0723 22.8511 14.1356 23.4845 14.0022C23.8354 13.9282 24.1525 13.7854 24.4062 13.5279C24.4808 13.4521 24.5566 13.4345 24.6543 13.4345C26.123 13.4364 27.591 13.4383 29.0596 13.432C29.2137 13.4314 29.2601 13.4721 29.2513 13.6256C29.2382 13.8437 29.2488 14.0636 29.2476 14.2829C29.2463 14.5742 29.1956 14.6281 28.9067 14.6281C27.8447 14.63 26.7821 14.6281 25.7201 14.6287C25.3416 14.6287 25.17 14.7409 25.1731 14.9859C25.1756 15.229 25.3423 15.3336 25.7276 15.3336C26.6962 15.3336 27.6649 15.3348 28.6329 15.3323C28.7494 15.3323 28.8284 15.3468 28.8904 15.4714C29.2006 16.0911 29.3271 16.7477 29.3321 17.4401C29.2338 17.4375 29.2156 17.3555 29.173 17.3079C28.0853 16.0786 26.7295 15.6281 25.1631 16.0855C23.6168 16.5366 22.7183 17.6349 22.4489 19.2307C22.4175 19.4156 22.3605 19.4632 22.1726 19.4619C20.5792 19.4525 18.9859 19.4532 17.3926 19.4607C17.2247 19.4613 17.1445 19.4118 17.0906 19.2539C17.0135 19.0277 16.9102 18.8103 16.8062 18.561L16.8068 18.5603Z" fill="#7785DB"/>
<path d="M18.229 10.563C18.6739 10.563 19.1194 10.5611 19.5642 10.5643C19.7065 10.5649 19.8462 10.5643 19.9652 10.4715C20.0661 10.3926 20.0886 10.4471 20.1112 10.5442C20.1663 10.7792 20.2321 11.0123 20.2954 11.2453C20.3173 11.3249 20.3336 11.3782 20.2215 11.4201C19.0937 11.8399 18.6451 12.7453 18.5166 13.8637C18.4314 14.6036 18.4828 15.3486 18.4784 16.0917C18.4772 16.2659 18.4521 16.3542 18.256 16.4188C17.7034 16.6005 17.3964 17.0227 17.3011 17.5866C17.2667 17.7909 17.2153 17.8736 16.9885 17.8623C16.5361 17.8398 16.5424 17.8536 16.4014 17.4168C15.6777 15.1669 15.8024 12.9376 16.5455 10.7197C16.5887 10.5912 16.6476 10.558 16.7767 10.5605C17.2604 10.5687 17.7447 10.5636 18.229 10.5636V10.563Z" fill="#7785DB"/>
<path d="M26.2 19.4588C25.2633 19.4588 24.3266 19.4588 23.3899 19.4588C23.2028 19.4588 23.1262 19.3669 23.16 19.1831C23.4119 17.8247 24.6011 16.7471 25.9738 16.6336C27.3698 16.5177 28.6812 17.3623 29.1592 18.6837C29.2281 18.8748 29.2676 19.0734 29.3158 19.2702C29.3585 19.4418 29.3002 19.4625 29.1504 19.4619C28.1668 19.4569 27.1837 19.4594 26.2 19.4594V19.4588Z" fill="#7785DB"/>
<path d="M20.4903 7.10505C20.4934 7.04615 20.4972 6.99979 20.4972 6.95405C20.4997 6.46409 20.6676 6.12951 21.2259 6.10319C21.3813 6.0963 21.5479 6.02237 21.682 5.93591C21.8762 5.81122 22.0103 5.86448 22.1732 5.99292C22.8912 6.55682 23.3405 7.30554 23.6594 8.14136C24.0222 9.09121 24.1681 10.0862 24.2333 11.0962C24.2427 11.244 24.2095 11.2942 24.0491 11.2929C23.1043 11.2848 22.1594 11.2866 21.2146 11.2917C21.083 11.2923 21.0197 11.2584 20.989 11.1231C20.9151 10.7961 20.8299 10.4715 20.7365 10.1495C20.7021 10.0292 20.7309 9.96713 20.833 9.90322C21.1494 9.70335 21.464 9.50035 21.771 9.2867C22.0736 9.07617 22.3035 8.80112 22.3975 8.43709C22.5184 7.97094 22.385 7.56494 22.0373 7.2454C21.6757 6.91332 21.2491 6.82059 20.7779 6.98663C20.6839 7.01984 20.5924 7.06182 20.4878 7.10442L20.4903 7.10505Z" fill="#7785DB"/>
<path d="M22.4965 11.9934C23.004 11.9934 23.5115 11.9997 24.0184 11.9897C24.1938 11.9859 24.2621 12.016 24.2433 12.2177C24.1781 12.9019 23.8386 13.2622 23.155 13.3455C22.6099 13.4119 22.0635 13.3718 21.5178 13.38C20.8317 13.39 20.5022 13.7033 20.4846 14.3981C20.4708 14.9608 20.4702 15.524 20.4771 16.0867C20.479 16.2527 20.4508 16.3229 20.2641 16.3122C19.9527 16.2947 19.64 16.3072 19.328 16.3079C19.2472 16.3079 19.1726 16.3166 19.1764 16.1926C19.204 15.3342 19.1012 14.4702 19.2672 13.6187C19.4132 12.8681 19.7779 12.2816 20.5592 12.0467C20.8111 11.9709 21.0692 11.9947 21.3261 11.9928C21.7164 11.9903 22.1068 11.9928 22.4965 11.9928V11.9934Z" fill="#7785DB"/>
<path d="M29.6993 10.9094C30.4956 10.9094 31.292 10.9138 32.0883 10.9057C32.2437 10.9044 32.3089 10.9301 32.3007 11.1056C32.2857 11.4414 32.2995 11.7778 32.2957 12.1143C32.2913 12.499 32.0658 12.7296 31.6842 12.7302C30.2087 12.7327 28.7331 12.7302 27.2576 12.734C27.1329 12.734 27.0822 12.7114 27.0847 12.5711C27.0935 12.0786 27.096 11.5855 27.0841 11.093C27.0797 10.9245 27.1473 10.9063 27.2877 10.9069C28.0916 10.9119 28.896 10.9094 29.6999 10.9094H29.6993Z" fill="#7785DB"/>
<path d="M21.3606 5.31442C21.3606 4.71983 21.3618 4.15719 21.3606 3.59454C21.3593 2.93729 21.1131 2.69419 20.4502 2.69357C19.7397 2.69357 19.0292 2.68981 18.3193 2.69607C18.1739 2.69732 18.1363 2.67477 18.1714 2.51563C18.4083 1.43107 19.3932 0.66229 20.5047 0.708655C21.5774 0.75314 22.5134 1.63156 22.6431 2.71549C22.7734 3.80632 22.3367 4.77309 21.499 5.24801C21.4665 5.26681 21.4314 5.28122 21.3612 5.31568L21.3606 5.31442Z" fill="#7785DB"/>
<path d="M12.3195 16.9425C12.5175 16.8974 12.6397 16.9889 12.7643 17.1298C13.5601 18.0315 14.3639 18.9262 15.164 19.824C15.2135 19.8798 15.3069 19.9349 15.258 20.0182C15.2123 20.0959 15.1289 20.0251 15.0669 20.0107C13.3596 19.621 11.6541 19.225 9.9455 18.8385C9.78886 18.8034 9.8039 18.7413 9.85402 18.6354C10.3515 17.5935 11.1786 17.0352 12.3189 16.9419L12.3195 16.9425Z" fill="#7785DB"/>
<path d="M29.6711 8.7523C28.8748 8.7523 28.0778 8.74854 27.2814 8.75543C27.1361 8.75668 27.0703 8.72974 27.0847 8.56684C27.1004 8.38827 27.0835 8.2072 27.091 8.02738C27.1035 7.71097 27.3266 7.47288 27.6398 7.47163C29.0063 7.46536 30.3728 7.46599 31.74 7.47163C32.0426 7.47288 32.2769 7.70157 32.292 8.00169C32.3039 8.24229 32.3715 8.54178 32.2588 8.70844C32.1604 8.8538 31.839 8.74854 31.6165 8.75042C30.9687 8.75668 30.3202 8.75293 29.6717 8.75293L29.6711 8.7523Z" fill="#7785DB"/>
<path d="M26.2827 20.163C26.9613 20.163 27.6398 20.1686 28.3184 20.1592C28.4995 20.1567 28.5233 20.2062 28.4725 20.3716C28.173 21.3496 27.2789 22.0301 26.2771 22.0301C25.2715 22.0301 24.3837 21.3559 24.0779 20.3766C24.0184 20.1855 24.0672 20.1567 24.2471 20.1592C24.9256 20.168 25.6042 20.163 26.2827 20.163Z" fill="#7785DB"/>
<path d="M12.6133 21.7607C11.3871 21.7582 10.5262 20.9431 10.4561 19.8842C10.4454 19.7194 10.4674 19.6737 10.6516 19.7182C11.7862 19.9901 12.9222 20.2539 14.0619 20.502C14.2899 20.5515 14.2555 20.6267 14.1665 20.7714C13.7718 21.4143 13.1966 21.7382 12.6133 21.7607Z" fill="#7785DB"/>
<path d="M29.6925 10.2046C28.8886 10.2046 28.0847 10.2015 27.2815 10.2078C27.1368 10.209 27.0829 10.1821 27.0835 10.0204C27.0866 9.45715 27.0797 9.45715 27.6336 9.45715C29.116 9.45715 30.5991 9.46029 32.0815 9.45277C32.2538 9.45214 32.3052 9.48973 32.302 9.66955C32.292 10.2046 32.3008 10.2046 31.7764 10.2046C31.0821 10.2046 30.3873 10.2046 29.6931 10.2046H29.6925Z" fill="#7785DB"/>
<path d="M20.6576 4.48548C20.6576 4.78246 20.6526 5.08007 20.6601 5.37706C20.6632 5.49861 20.6206 5.5362 20.501 5.54497C19.4427 5.62141 18.5336 4.64149 18.6833 3.58826C18.7034 3.44603 18.7435 3.3909 18.8964 3.3934C19.4189 3.40343 19.9421 3.4028 20.4646 3.3934C20.6206 3.3909 20.667 3.43977 20.6607 3.5939C20.6494 3.89088 20.6576 4.18787 20.6576 4.48485V4.48548Z" fill="#7785DB"/>
<path d="M18.9409 9.8581C18.7535 9.8581 18.5656 9.85246 18.3782 9.85998C18.2623 9.86499 18.2166 9.8368 18.2122 9.70773C18.1959 9.24346 18.1902 9.22153 18.6514 9.21902C19.0129 9.21714 19.2886 9.09371 19.548 8.8481C19.9108 8.50413 20.3017 8.19022 20.6808 7.86379C20.7936 7.76668 20.9101 7.67645 21.058 7.63698C21.2879 7.57495 21.4759 7.64638 21.6219 7.82307C21.7666 7.99787 21.7735 8.19148 21.6651 8.39072C21.5724 8.56177 21.4283 8.67893 21.2697 8.78231C20.7597 9.11501 20.2478 9.44395 19.7403 9.77916C19.6507 9.83868 19.5618 9.86311 19.4565 9.85935C19.2848 9.85371 19.1125 9.8581 18.9409 9.8581Z" fill="#7785DB"/>
<path d="M19.2072 17.8555C18.8407 17.8555 18.4741 17.8517 18.1076 17.858C17.9929 17.8599 17.9641 17.8367 17.986 17.7145C18.06 17.301 18.33 17.0372 18.7736 17.0203C19.2955 17.0009 19.8187 17.0159 20.3412 17.0109C20.444 17.0103 20.486 17.0472 20.4741 17.1475C20.4734 17.155 20.4741 17.1631 20.4741 17.1707C20.4697 17.3881 20.5455 17.6688 20.4384 17.8066C20.3237 17.9538 20.0311 17.8436 19.8162 17.8536C19.6138 17.863 19.4108 17.8555 19.2078 17.8555H19.2072Z" fill="#7785DB"/>
<path d="M14.06 8.51794C14.6578 8.71656 15.2298 8.90891 15.8037 9.09562C15.8971 9.12632 15.8751 9.16705 15.8457 9.22971C15.7705 9.38697 15.7317 9.55426 15.7511 9.72844C15.763 9.83495 15.7235 9.86127 15.6233 9.86064C15.1483 9.85688 14.6734 9.85751 14.1991 9.86064C14.1076 9.86064 14.0563 9.84936 14.0575 9.73721C14.0632 9.34123 14.06 8.94525 14.06 8.5192V8.51794Z" fill="#7785DB"/>
<path d="M17.0198 9.8588C16.9108 9.8588 16.8011 9.85567 16.6921 9.85943C16.5718 9.86382 16.4678 9.84439 16.4528 9.69966C16.4384 9.56182 16.486 9.44152 16.6232 9.40017C16.887 9.32122 17.1658 9.35255 17.4365 9.31245C17.5173 9.30055 17.5073 9.37323 17.5129 9.42711C17.5447 9.71491 17.3803 9.85859 17.0198 9.85818V9.8588Z" fill="#7785DB"/>
</g>
<defs>
<clipPath id="clip0_2_468">
<rect width="24" height="22.7337" fill="white" transform="translate(9)"/>
</clipPath>
</defs>
</svg>
