<svg width="20" height="20" viewBox="0 0 20 20" fill="none" xmlns="http://www.w3.org/2000/svg">
<path d="M9.99984 18.3333C8.86095 18.3333 7.78456 18.1144 6.77067 17.6766C5.75678 17.2388 4.87123 16.6416 4.114 15.885C3.35734 15.1283 2.76012 14.243 2.32234 13.2291C1.88456 12.2152 1.66595 11.1388 1.6665 9.99996C1.6665 8.84718 1.88539 7.76718 2.32317 6.75996C2.76095 5.75274 3.35817 4.87107 4.11484 4.11496C4.87151 3.35774 5.7565 2.76051 6.76984 2.32329C7.78317 1.88607 8.85984 1.66718 9.99984 1.66663C11.1526 1.66663 12.2326 1.88551 13.2398 2.32329C14.2471 2.76107 15.1287 3.35829 15.8848 4.11496C16.6421 4.87163 17.2393 5.75357 17.6765 6.76079C18.1137 7.76801 18.3326 8.84774 18.3332 9.99996C18.3332 11.1388 18.1143 12.2152 17.6765 13.2291C17.2387 14.243 16.6415 15.1286 15.8848 15.8858C15.1282 16.6425 14.2462 17.2397 13.239 17.6775C12.2318 18.1152 11.1521 18.3338 9.99984 18.3333ZM9.99984 16.625C10.3609 16.125 10.6734 15.6041 10.9373 15.0625C11.2012 14.5208 11.4165 13.9444 11.5832 13.3333H8.4165C8.58317 13.9444 8.79845 14.5208 9.06234 15.0625C9.32623 15.6041 9.63873 16.125 9.99984 16.625ZM7.83317 16.2916C7.58317 15.8333 7.36428 15.3575 7.17651 14.8641C6.98873 14.3708 6.83262 13.8605 6.70817 13.3333H4.24984C4.65262 14.0277 5.15623 14.6319 5.76067 15.1458C6.36512 15.6597 7.05595 16.0416 7.83317 16.2916ZM12.1665 16.2916C12.9443 16.0416 13.6354 15.6597 14.2398 15.1458C14.8443 14.6319 15.3476 14.0277 15.7498 13.3333H13.2915C13.1665 13.8611 13.0104 14.3716 12.8232 14.865C12.6359 15.3583 12.4171 15.8338 12.1665 16.2916ZM3.5415 11.6666H6.37484C6.33317 11.3888 6.30178 11.1144 6.28067 10.8433C6.25956 10.5722 6.24928 10.2911 6.24984 9.99996C6.24984 9.70829 6.26039 9.42718 6.28151 9.15663C6.30262 8.88607 6.33373 8.61163 6.37484 8.33329H3.5415C3.47206 8.61107 3.41984 8.88551 3.38484 9.15663C3.34984 9.42774 3.33262 9.70885 3.33317 9.99996C3.33317 10.2916 3.35067 10.5727 3.38567 10.8433C3.42067 11.1138 3.47262 11.3883 3.5415 11.6666ZM8.0415 11.6666H11.9582C11.9998 11.3888 12.0312 11.1144 12.0523 10.8433C12.0734 10.5722 12.0837 10.2911 12.0832 9.99996C12.0832 9.70829 12.0726 9.42718 12.0515 9.15663C12.0304 8.88607 11.9993 8.61163 11.9582 8.33329H8.0415C7.99984 8.61107 7.96845 8.88551 7.94734 9.15663C7.92623 9.42774 7.91595 9.70885 7.9165 9.99996C7.9165 10.2916 7.92706 10.5727 7.94817 10.8433C7.96928 11.1138 8.00039 11.3883 8.0415 11.6666ZM13.6248 11.6666H16.4582C16.5276 11.3888 16.5798 11.1144 16.6148 10.8433C16.6498 10.5722 16.6671 10.2911 16.6665 9.99996C16.6665 9.70829 16.649 9.42718 16.614 9.15663C16.579 8.88607 16.5271 8.61163 16.4582 8.33329H13.6248C13.6665 8.61107 13.6979 8.88551 13.719 9.15663C13.7401 9.42774 13.7504 9.70885 13.7498 9.99996C13.7498 10.2916 13.7393 10.5727 13.7182 10.8433C13.6971 11.1138 13.6659 11.3883 13.6248 11.6666ZM13.2915 6.66663H15.7498C15.3471 5.97218 14.8437 5.36801 14.2398 4.85413C13.6359 4.34024 12.9448 3.95829 12.1665 3.70829C12.4165 4.16663 12.6354 4.64246 12.8232 5.13579C13.0109 5.62913 13.1671 6.1394 13.2915 6.66663ZM8.4165 6.66663H11.5832C11.4165 6.05551 11.2012 5.47913 10.9373 4.93746C10.6734 4.39579 10.3609 3.87496 9.99984 3.37496C9.63873 3.87496 9.32623 4.39579 9.06234 4.93746C8.79845 5.47913 8.58317 6.05551 8.4165 6.66663ZM4.24984 6.66663H6.70817C6.83317 6.13885 6.98956 5.62829 7.17734 5.13496C7.36512 4.64163 7.58373 4.16607 7.83317 3.70829C7.05539 3.95829 6.36428 4.34024 5.75984 4.85413C5.15539 5.36801 4.65206 5.97218 4.24984 6.66663Z" fill="#C7C7C7"/>
</svg>
