<svg width="20" height="20" viewBox="0 0 20 20" fill="none" xmlns="http://www.w3.org/2000/svg">
<path d="M3.11832 15.4625C4.11832 16.6667 5.97832 16.6667 9.69916 16.6667H10.3008C14.0217 16.6667 15.8825 16.6667 16.8825 15.4625M3.11832 15.4625C2.11832 14.2575 2.46166 12.4292 3.14749 8.77087C3.63499 6.17087 3.87832 4.87004 4.80416 4.10171M16.8825 15.4625C17.8825 14.2575 17.5392 12.4292 16.8533 8.77087C16.3658 6.17087 16.1217 4.87004 15.1958 4.10171M15.1958 4.10171C14.2708 3.33337 12.9467 3.33337 10.3008 3.33337H9.69916C7.05332 3.33337 5.72999 3.33337 4.80416 4.10171" stroke="#C7C7C7" stroke-width="1.5"/>
<path d="M7.6416 6.66675C7.81377 7.15469 8.13305 7.57722 8.55543 7.87609C8.97782 8.17496 9.48251 8.33546 9.99993 8.33546C10.5174 8.33546 11.0221 8.17496 11.4444 7.87609C11.8668 7.57722 12.1861 7.15469 12.3583 6.66675" stroke="#C7C7C7" stroke-width="1.5" stroke-linecap="round"/>
</svg>
