<svg width="48" height="46" viewBox="0 0 48 46" fill="none" xmlns="http://www.w3.org/2000/svg">
<g clip-path="url(#clip0_2_4420)">
<path d="M48 24.8014C47.8847 24.8691 47.9185 24.9957 47.8847 25.0947C47.5238 26.1686 46.579 26.8628 45.4424 26.8703C44.3798 26.8778 43.3171 26.8841 42.2558 26.864C41.9625 26.859 41.8798 26.938 41.8961 27.2274C41.9212 27.6798 41.8911 28.1359 41.9049 28.5896C41.9249 29.2361 41.7382 29.7925 41.2433 30.2236C41.1292 30.3238 41.0616 30.3928 41.1455 30.5669C42.128 32.6183 42.2382 34.7811 41.8961 36.9841C41.8184 37.4891 41.9876 37.9389 42.0315 38.4139C42.0615 38.7409 42.1067 39.068 42.1092 39.395C42.1117 39.9752 41.7984 40.3511 41.2232 40.301C40.6004 40.2471 40.4438 40.5115 40.2934 41.0592C39.5466 43.7784 37.0742 45.5615 34.2785 45.4625C31.6157 45.3686 29.2812 43.3749 28.6972 40.6732C28.6396 40.405 28.5481 40.3186 28.2737 40.3198C23.6021 40.3273 18.9306 40.3273 14.259 40.3198C13.9796 40.3198 13.8956 40.4038 13.8568 40.6807C13.7352 41.5654 13.4006 41.7997 12.5435 41.5566C12.0949 41.4288 11.9019 41.5015 11.6851 41.9526C10.6062 44.2032 8.05741 45.3798 5.64895 44.7971C3.21418 44.2082 1.47362 41.9915 1.51874 39.4915C1.52625 39.1168 1.42601 38.9564 1.07138 38.9151C0.90221 38.8963 0.734295 38.8499 0.570139 38.8023C0.105238 38.6657 -0.0789674 38.3424 0.0313055 37.8725C0.738054 34.8551 3.46731 32.5945 6.56121 32.4917C6.9008 32.4804 7.04115 32.3727 7.12761 32.0506C7.38826 31.0707 7.68399 30.0995 7.96468 29.1259C8.16142 28.4417 8.47469 28.1685 8.92706 28.2938C9.39196 28.4216 9.51978 28.8151 9.3243 29.4968C9.01729 30.5607 8.72155 31.6296 8.39826 32.6884C8.32432 32.9315 8.35189 33.0869 8.51981 33.2736C10.1401 35.0756 11.7541 36.8851 13.363 38.6971C13.4984 38.8499 13.6325 38.9314 13.8417 38.9201C14.1525 38.9051 14.4633 38.9164 14.8304 38.9164C13.6262 36.0756 12.6751 33.2147 12.457 30.1534C12.239 27.0796 12.759 24.1122 13.7152 21.1261C13.0773 21.1261 12.4796 21.1261 11.8831 21.1261C11.6287 21.1261 11.6601 21.3479 11.6175 21.4957C11.2102 22.8879 10.808 24.2826 10.4045 25.6761C10.3957 25.7062 10.3932 25.7375 10.3844 25.7676C10.2215 26.3089 9.90448 26.5457 9.4872 26.438C9.03358 26.3202 8.86065 25.9455 9.01979 25.3879C9.30675 24.3829 9.60499 23.3804 9.89696 22.3767C10.0135 21.9757 10.1225 21.5709 10.2466 21.1248C9.98468 21.1248 9.76915 21.1298 9.55236 21.1248C8.9822 21.111 8.71905 20.8567 8.71654 20.2903C8.71028 19.1011 8.70652 17.9106 8.71905 16.7214C8.72907 15.7866 9.31177 15.3242 10.2002 15.5987C11.7177 16.0673 13.2252 16.5686 14.7252 17.0911C15.274 17.2828 15.8128 17.3192 16.378 17.2665C17.4043 17.17 18.4318 17.0848 19.4594 17.0109C19.6586 16.9959 19.8228 16.9495 19.9581 16.8054C19.9681 16.7941 19.9807 16.7841 19.9932 16.7741C20.4857 16.3417 21.131 15.9934 21.4292 15.4533C21.7287 14.912 21.5069 14.1639 21.6423 13.5173C21.715 13.1664 21.9217 12.7303 21.7889 12.4835C21.6611 12.2479 21.1661 12.2216 20.844 12.0787C18.9168 11.2241 17.7414 9.22665 17.9682 7.16279C18.0008 6.86706 17.9519 6.78937 17.6474 6.78686C17.0334 6.78185 16.8078 6.51995 16.8216 5.91094C16.8943 2.58772 19.6448 -0.0613323 22.9568 6.96522e-05C25.78 0.0526999 28.3413 2.36467 28.6797 5.18289C28.9153 7.14901 28.5005 8.94094 27.2161 10.4898C27.1258 10.5988 26.9604 10.6853 27.181 10.8569C29.3752 12.5561 30.4841 14.9195 31.1746 17.5197C31.7686 19.7577 31.959 22.0446 31.8851 24.3553C31.8738 24.7125 31.8012 25.0671 31.7523 25.4618C32.6746 25.4618 33.5943 25.4505 34.5129 25.4668C34.8775 25.4731 34.766 25.2275 34.7672 25.0533C34.7723 22.2514 34.7685 19.4494 34.7723 16.6463C34.7723 16.2866 34.7535 15.9195 34.8211 15.5711C35.0592 14.3619 36.0868 13.5323 37.3298 13.5285C40.0177 13.5223 42.7044 13.5235 45.3923 13.5285C46.6078 13.5298 47.5464 14.234 47.9035 15.3944C47.926 15.4671 47.9173 15.5523 48 15.5936V24.8002V24.8014Z" fill="#7785DB"/>
<path d="M15.6137 37.1207C17.9557 37.1207 20.205 37.1207 22.4544 37.1207C22.6724 37.1207 22.8917 37.1219 23.1097 37.1106C23.923 37.0655 24.3252 36.6633 24.3453 35.8275C24.3666 34.9666 24.3515 34.1057 24.3515 33.2448C24.3515 32.5556 24.3754 31.8664 24.3428 31.1797C24.324 30.7825 24.4104 30.6484 24.844 30.6559C26.468 30.686 28.0933 30.6659 29.7173 30.6697C30.1271 30.6697 30.4704 30.5707 30.5682 30.1121C30.6759 29.6096 30.3414 29.265 29.7324 29.2612C28.3264 29.2537 26.9204 29.2587 25.5144 29.2587C25.2174 29.2587 24.9205 29.2487 24.6247 29.2625C24.4205 29.2725 24.3653 29.2048 24.3616 28.9968C24.349 28.2976 24.4543 28.1835 25.1397 28.1698C26.4179 28.1447 27.7023 28.2713 28.9692 28.0043C29.671 27.8565 30.305 27.5708 30.8125 27.0558C30.9616 26.9041 31.1133 26.869 31.3088 26.869C34.246 26.8728 37.182 26.8766 40.1193 26.864C40.4276 26.8628 40.5203 26.9442 40.5028 27.2512C40.4764 27.6873 40.4977 28.1272 40.4952 28.5657C40.4927 29.1484 40.3912 29.2562 39.8135 29.2562C37.6895 29.26 35.5643 29.2562 33.4403 29.2574C32.6834 29.2574 32.3401 29.4818 32.3463 29.9717C32.3513 30.4579 32.6847 30.6672 33.4553 30.6672C35.3926 30.6672 37.3299 30.6697 39.2659 30.6647C39.499 30.6647 39.6569 30.6935 39.781 30.9429C40.4013 32.1822 40.6544 33.4954 40.6644 34.8801C40.4677 34.8751 40.4313 34.7109 40.3461 34.6157C38.1707 32.1571 35.459 31.2561 32.3263 32.1709C29.2336 33.0731 27.4367 35.2698 26.8978 38.4615C26.8352 38.8311 26.7212 38.9264 26.3452 38.9239C23.1586 38.9051 19.972 38.9063 16.7853 38.9214C16.4495 38.9226 16.2891 38.8236 16.1813 38.5078C16.0272 38.0555 15.8204 37.6206 15.6124 37.1219L15.6137 37.1207Z" fill="white"/>
<path d="M18.4582 21.126C19.3479 21.126 20.2389 21.1223 21.1286 21.1285C21.413 21.1298 21.6925 21.1285 21.9306 20.9431C22.1323 20.7852 22.1774 20.8942 22.2225 21.0884C22.3328 21.5584 22.4644 22.0245 22.5909 22.4907C22.6348 22.6498 22.6674 22.7563 22.4431 22.8403C20.1875 23.6799 19.2903 25.4906 19.0334 27.7274C18.863 29.2073 18.9657 30.6972 18.9569 32.1834C18.9544 32.5318 18.9043 32.7084 18.5121 32.8375C17.4069 33.2009 16.7928 34.0455 16.6024 35.1733C16.5335 35.5818 16.4307 35.7472 15.9771 35.7247C15.0723 35.6795 15.0849 35.7071 14.8029 34.8337C13.3556 30.3338 13.605 25.8753 15.0911 21.4393C15.1776 21.1824 15.2954 21.116 15.5535 21.121C16.5209 21.1373 17.4896 21.1273 18.4582 21.1273V21.126Z" fill="white"/>
<path d="M34.4001 38.9175C32.5268 38.9175 30.6534 38.9175 28.78 38.9175C28.4057 38.9175 28.2524 38.7337 28.3201 38.3662C28.8239 35.6494 31.2022 33.4941 33.9478 33.2673C36.7397 33.0355 39.3624 34.7246 40.3185 37.3674C40.4564 37.7496 40.5353 38.1469 40.6318 38.5403C40.717 38.8837 40.6005 38.925 40.301 38.9238C38.3336 38.9138 36.3675 38.9188 34.4001 38.9188V38.9175Z" fill="white"/>
<path d="M22.9806 14.2101C22.9869 14.0923 22.9944 13.9996 22.9944 13.9081C22.9994 12.9282 23.3352 12.259 24.4517 12.2064C24.7625 12.1926 25.0958 12.0447 25.364 11.8718C25.7525 11.6224 26.0206 11.729 26.3464 11.9858C27.7825 13.1136 28.681 14.6111 29.3188 16.2827C30.0443 18.1824 30.3363 20.1723 30.4666 22.1923C30.4854 22.4881 30.419 22.5883 30.0982 22.5858C28.2085 22.5695 26.3189 22.5733 24.4292 22.5833C24.166 22.5846 24.0395 22.5169 23.9781 22.2462C23.8302 21.5921 23.6598 20.943 23.4731 20.2989C23.4041 20.0583 23.4618 19.9343 23.666 19.8064C24.2989 19.4067 24.9279 19.0007 25.5419 18.5734C26.1472 18.1523 26.6071 17.6022 26.795 16.8742C27.0369 15.9419 26.77 15.1299 26.0745 14.4908C25.3515 13.8266 24.4981 13.6412 23.5558 13.9733C23.3678 14.0397 23.1849 14.1236 22.9756 14.2088L22.9806 14.2101Z" fill="white"/>
<path d="M26.9931 23.9869C28.0081 23.9869 29.0231 23.9994 30.0369 23.9793C30.3877 23.9718 30.5243 24.032 30.4867 24.4355C30.3564 25.8039 29.6772 26.5244 28.3101 26.6911C27.2199 26.8239 26.1272 26.7437 25.0357 26.76C23.6636 26.78 23.0045 27.4066 22.9694 28.7963C22.9418 29.9215 22.9406 31.0481 22.9543 32.1734C22.9581 32.5054 22.9017 32.6458 22.5283 32.6245C21.9055 32.5894 21.2802 32.6145 20.6562 32.6157C20.4945 32.6157 20.3454 32.6333 20.3529 32.3851C20.408 30.6684 20.2025 28.9404 20.5346 27.2374C20.8266 25.7362 21.5559 24.5633 23.1185 24.0934C23.6222 23.9418 24.1385 23.9894 24.6523 23.9856C25.433 23.9806 26.2137 23.9856 26.9931 23.9856V23.9869Z" fill="white"/>
<path d="M41.3987 21.8189C42.9914 21.8189 44.5841 21.8277 46.1768 21.8114C46.4875 21.8089 46.6179 21.8602 46.6016 22.2111C46.5715 22.8828 46.5991 23.5557 46.5915 24.2286C46.5828 24.998 46.1316 25.4591 45.3685 25.4604C42.4175 25.4654 39.4664 25.4604 36.5154 25.4679C36.266 25.4679 36.1645 25.4228 36.1695 25.1421C36.187 24.1572 36.1921 23.171 36.1682 22.186C36.1595 21.849 36.2948 21.8126 36.5755 21.8139C38.1832 21.8239 39.7922 21.8189 41.3999 21.8189H41.3987Z" fill="white"/>
<path d="M24.7211 10.6288C24.7211 9.43966 24.7236 8.31437 24.7211 7.18909C24.7186 5.87459 24.2262 5.38838 22.9004 5.38713C21.4794 5.38713 20.0584 5.37961 18.6386 5.39214C18.3479 5.39465 18.2727 5.34954 18.3429 5.03125C18.8165 2.86213 20.7864 1.32458 23.0094 1.41731C25.1547 1.50628 27.0268 3.26313 27.2862 5.43099C27.5469 7.61264 26.6735 9.54617 24.9981 10.496C24.9329 10.5336 24.8627 10.5624 24.7224 10.6314L24.7211 10.6288Z" fill="white"/>
<path d="M6.63887 33.885C7.03485 33.7948 7.27921 33.9777 7.52858 34.2597C9.12001 36.0629 10.7277 37.8523 12.3279 39.648C12.4269 39.7596 12.6137 39.8698 12.5159 40.0365C12.4244 40.1919 12.2578 40.0503 12.1337 40.0215C8.71902 39.242 5.30808 38.4501 1.89088 37.6769C1.5776 37.6067 1.60768 37.4827 1.70793 37.2709C2.70289 35.187 4.35698 34.0705 6.63762 33.8838L6.63887 33.885Z" fill="white"/>
<path d="M41.3423 17.5046C39.7496 17.5046 38.1557 17.4971 36.563 17.5109C36.2723 17.5134 36.1407 17.4595 36.1695 17.1337C36.2009 16.7765 36.167 16.4144 36.1821 16.0548C36.2071 15.4219 36.6532 14.9458 37.2798 14.9433C40.0128 14.9307 42.7458 14.932 45.4801 14.9433C46.0853 14.9458 46.554 15.4031 46.584 16.0034C46.6079 16.4846 46.7432 17.0836 46.5176 17.4169C46.3209 17.7076 45.6781 17.4971 45.2332 17.5008C43.9375 17.5134 42.6405 17.5059 41.3436 17.5059L41.3423 17.5046Z" fill="white"/>
<path d="M34.5655 40.3259C35.9226 40.3259 37.2797 40.3372 38.6368 40.3184C38.9989 40.3134 39.0465 40.4124 38.945 40.7432C38.3461 42.6993 36.5579 44.0602 34.5542 44.0602C32.543 44.0602 30.7673 42.7118 30.1558 40.7532C30.0368 40.371 30.1345 40.3134 30.4941 40.3184C31.8512 40.3359 33.2084 40.3259 34.5655 40.3259Z" fill="white"/>
<path d="M7.22657 43.5215C4.77426 43.5165 3.0525 41.8862 2.91215 39.7685C2.89085 39.4389 2.93471 39.3474 3.30312 39.4364C5.57248 39.9802 7.84435 40.5078 10.1237 41.004C10.5799 41.103 10.5109 41.2534 10.333 41.5428C9.54356 42.8285 8.39321 43.4764 7.22657 43.5215Z" fill="white"/>
<path d="M41.3849 20.4093C39.7772 20.4093 38.1695 20.403 36.563 20.4155C36.2735 20.418 36.1657 20.3641 36.167 20.0408C36.1733 18.9143 36.1595 18.9143 37.2672 18.9143C40.2321 18.9143 43.1982 18.9206 46.163 18.9055C46.5076 18.9043 46.6103 18.9795 46.6041 19.3391C46.584 20.4093 46.6016 20.4093 45.5527 20.4093C44.1643 20.4093 42.7746 20.4093 41.3862 20.4093H41.3849Z" fill="white"/>
<path d="M23.3152 8.97096C23.3152 9.56493 23.3052 10.1601 23.3202 10.7541C23.3265 10.9972 23.2413 11.0724 23.0019 11.0899C20.8854 11.2428 19.0672 9.28298 19.3667 7.17652C19.4068 6.89206 19.487 6.78179 19.7927 6.7868C20.8378 6.80685 21.8841 6.8056 22.9292 6.7868C23.2413 6.78179 23.334 6.87953 23.3215 7.1878C23.2989 7.78176 23.3152 8.37573 23.3152 8.9697V8.97096Z" fill="white"/>
<path d="M19.8817 19.7162C19.507 19.7162 19.1311 19.7049 18.7564 19.72C18.5246 19.73 18.4331 19.6736 18.4244 19.4155C18.3918 18.4869 18.3805 18.4431 19.3028 18.438C20.0258 18.4343 20.5772 18.1874 21.096 17.6962C21.8215 17.0083 22.6034 16.3804 23.3616 15.7276C23.5871 15.5334 23.8202 15.3529 24.1159 15.274C24.5758 15.1499 24.9518 15.2928 25.2437 15.6461C25.5332 15.9957 25.547 16.383 25.3302 16.7814C25.1447 17.1235 24.8565 17.3579 24.5395 17.5646C23.5195 18.23 22.4957 18.8879 21.4807 19.5583C21.3015 19.6774 21.1235 19.7262 20.913 19.7187C20.5697 19.7074 20.2251 19.7162 19.8817 19.7162Z" fill="white"/>
<path d="M20.4142 35.711C19.6812 35.711 18.9481 35.7034 18.2151 35.716C17.9857 35.7197 17.9281 35.6734 17.9719 35.429C18.1198 34.602 18.6599 34.0744 19.5471 34.0406C20.5909 34.0017 21.6373 34.0318 22.6824 34.0218C22.8879 34.0205 22.9718 34.0945 22.948 34.2949C22.9468 34.31 22.948 34.3263 22.948 34.3413C22.9392 34.7761 23.0909 35.3375 22.8766 35.6132C22.6473 35.9077 22.0621 35.6871 21.6323 35.7072C21.2275 35.726 20.8215 35.711 20.4155 35.711H20.4142Z" fill="white"/>
<path d="M10.12 17.0359C11.3155 17.4331 12.4596 17.8178 13.6074 18.1912C13.7941 18.2526 13.7503 18.3341 13.6914 18.4594C13.541 18.7739 13.4633 19.1085 13.5022 19.4569C13.526 19.6699 13.447 19.7225 13.2465 19.7213C12.2967 19.7138 11.3468 19.715 10.3982 19.7213C10.2153 19.7213 10.1125 19.6987 10.115 19.4744C10.1263 18.6825 10.12 17.8905 10.12 17.0384V17.0359Z" fill="white"/>
<path d="M16.0396 19.7176C15.8216 19.7176 15.6023 19.7113 15.3843 19.7189C15.1437 19.7276 14.9356 19.6888 14.9056 19.3993C14.8768 19.1236 14.972 18.883 15.2464 18.8003C15.774 18.6424 16.3316 18.7051 16.8729 18.6249C17.0346 18.6011 17.0145 18.7465 17.0258 18.8542C17.0893 19.4298 16.7606 19.7172 16.0396 19.7164V19.7176Z" fill="white"/>
</g>
<defs>
<clipPath id="clip0_2_4420">
<rect width="48" height="45.4675" fill="white"/>
</clipPath>
</defs>
</svg>
