<svg width="48" height="48" viewBox="0 0 48 48" fill="none" xmlns="http://www.w3.org/2000/svg">
<path d="M7.48378 37.11C9.88378 40 14.3478 40 23.2778 40H24.7218C33.6518 40 38.1178 40 40.5178 37.11M7.48378 37.11C5.08378 34.218 5.90778 29.83 7.55378 21.05C8.72378 14.81 9.30778 11.688 11.5298 9.844M40.5178 37.11C42.9178 34.218 42.0938 29.83 40.4478 21.05C39.2778 14.81 38.6918 11.688 36.4698 9.844M36.4698 9.844C34.2498 8 31.0718 8 24.7218 8H23.2778C16.9278 8 13.7518 8 11.5298 9.844" stroke="#7785DB" stroke-width="3"/>
<path d="M18.3398 16C18.753 17.1711 19.5193 18.1851 20.533 18.9024C21.5468 19.6197 22.758 20.0049 23.9998 20.0049C25.2417 20.0049 26.4529 19.6197 27.4666 18.9024C28.4804 18.1851 29.2466 17.1711 29.6598 16" stroke="#7785DB" stroke-width="3" stroke-linecap="round"/>
</svg>
