<svg width="20" height="20" viewBox="0 0 20 20" fill="none" xmlns="http://www.w3.org/2000/svg">
<g clip-path="url(#clip0_2_2626)">
<path fill-rule="evenodd" clip-rule="evenodd" d="M13.3337 7.50008C13.3337 8.38414 12.9825 9.23198 12.3573 9.8571C11.7322 10.4822 10.8844 10.8334 10.0003 10.8334C9.11627 10.8334 8.26842 10.4822 7.6433 9.8571C7.01818 9.23198 6.66699 8.38414 6.66699 7.50008C6.66699 6.61603 7.01818 5.76818 7.6433 5.14306C8.26842 4.51794 9.11627 4.16675 10.0003 4.16675C10.8844 4.16675 11.7322 4.51794 12.3573 5.14306C12.9825 5.76818 13.3337 6.61603 13.3337 7.50008ZM11.667 7.50008C11.667 7.94211 11.4914 8.36603 11.1788 8.67859C10.8663 8.99115 10.4424 9.16675 10.0003 9.16675C9.5583 9.16675 9.13438 8.99115 8.82181 8.67859C8.50925 8.36603 8.33366 7.94211 8.33366 7.50008C8.33366 7.05805 8.50925 6.63413 8.82181 6.32157C9.13438 6.00901 9.5583 5.83341 10.0003 5.83341C10.4424 5.83341 10.8663 6.00901 11.1788 6.32157C11.4914 6.63413 11.667 7.05805 11.667 7.50008Z" fill="#C7C7C7"/>
<path fill-rule="evenodd" clip-rule="evenodd" d="M10.0002 0.833374C4.93766 0.833374 0.833496 4.93754 0.833496 10C0.833496 15.0625 4.93766 19.1667 10.0002 19.1667C15.0627 19.1667 19.1668 15.0625 19.1668 10C19.1668 4.93754 15.0627 0.833374 10.0002 0.833374ZM2.50016 10C2.50016 11.7417 3.09433 13.345 4.09016 14.6184C4.78952 13.7 5.69175 12.9557 6.72636 12.4436C7.76097 11.9316 8.89995 11.6657 10.0543 11.6667C11.1938 11.6656 12.3184 11.9246 13.3426 12.424C14.3668 12.9234 15.2635 13.65 15.9643 14.5484C16.6864 13.6014 17.1725 12.4961 17.3826 11.3239C17.5926 10.1517 17.5205 8.94632 17.1722 7.80753C16.824 6.66874 16.2095 5.62925 15.3797 4.77507C14.55 3.9209 13.5287 3.27659 12.4005 2.89546C11.2723 2.51434 10.0695 2.40735 8.89171 2.58335C7.71393 2.75935 6.59499 3.21328 5.62747 3.90759C4.65995 4.60189 3.87167 5.5166 3.32785 6.57604C2.78404 7.63548 2.50031 8.80918 2.50016 10ZM10.0002 17.5C8.27845 17.5026 6.60872 16.9103 5.2735 15.8234C5.81094 15.054 6.52628 14.4258 7.35866 13.9923C8.19104 13.5588 9.11582 13.3327 10.0543 13.3334C10.9811 13.3326 11.8947 13.553 12.7193 13.9762C13.5438 14.3994 14.2555 15.0133 14.7952 15.7667C13.4496 16.889 11.7523 17.5025 10.0002 17.5Z" fill="#C7C7C7"/>
</g>
<defs>
<clipPath id="clip0_2_2626">
<rect width="20" height="20" fill="white"/>
</clipPath>
</defs>
</svg>
