<svg xmlns="http://www.w3.org/2000/svg" xmlns:xlink="http://www.w3.org/1999/xlink" version="1.1" x="0px" y="0px" viewBox="0 0 100 125" enable-background="new 0 0 100 100" xml:space="preserve"><g><path d="M49.595,60.478c-3.969,0-7.561-1.712-10.678-5.089c-0.318-0.345-0.297-0.883,0.048-1.201   c0.346-0.317,0.883-0.297,1.201,0.049c2.782,3.014,5.954,4.542,9.429,4.542c3.945,0,7.224-2.566,9.281-4.719   c0.325-0.34,0.862-0.352,1.202-0.027c0.339,0.324,0.352,0.862,0.027,1.201C56.827,58.664,53.193,60.478,49.595,60.478z"/><path d="M31.855,36.018c-0.435,0-0.806-0.332-0.846-0.774c-0.042-0.467,0.303-0.88,0.771-0.922l1.196-0.106   c0.514-1.166,1.879-4.337,2.534-6.535c1.345-4.516,1.169-6.906,1.167-6.931c-0.03-0.363,0.176-0.706,0.51-0.851   c0.336-0.144,0.725-0.062,0.969,0.21c0.049,0.055,4.966,5.405,11.725,4.467c2.284-0.318,5.496-2.277,7.841-3.707   c2.687-1.638,3.693-2.252,4.399-1.391c2.681,3.271,3.703,11.243,3.964,13.745l0.976,0.04c0.469,0.02,0.834,0.415,0.814,0.885   c-0.019,0.469-0.425,0.82-0.884,0.814l-1.717-0.07c-0.429-0.018-0.777-0.353-0.813-0.78c-0.008-0.098-0.805-9.511-3.393-13.208   c-0.543,0.246-1.59,0.885-2.462,1.416c-2.472,1.508-5.858,3.572-8.491,3.939c-5.449,0.758-9.715-1.962-11.811-3.693   c-0.125,1.27-0.435,3.144-1.167,5.6c-0.844,2.836-2.735,7.025-2.815,7.202c-0.126,0.279-0.394,0.469-0.699,0.496l-1.694,0.151   C31.906,36.017,31.881,36.018,31.855,36.018z"/><path d="M21.131,84.761c-0.388,0-0.739-0.269-0.828-0.663l-2.687-11.873c-0.057-0.252,0.004-0.517,0.165-0.718   c0.161-0.202,0.406-0.319,0.664-0.319h62.76c0.258,0,0.503,0.117,0.664,0.319c0.161,0.201,0.222,0.466,0.165,0.718l-2.685,11.863   c-0.104,0.458-0.565,0.746-1.017,0.642c-0.458-0.104-0.745-0.559-0.642-1.017l2.45-10.826H19.509l2.452,10.836   c0.104,0.458-0.184,0.913-0.642,1.017C21.257,84.754,21.194,84.761,21.131,84.761z"/><path d="M77.247,92.617H22.403c-0.693,0-1.295-0.475-1.458-1.148l-1.461-6.052H7.341c-0.46,0-0.895-0.211-1.18-0.573   c-0.284-0.362-0.387-0.835-0.278-1.282c1.217-4.992,4.242-16.793,6.037-18.541c0.771-0.751,9.218-4.164,25.113-10.147   c-3.276-4.292-4.821-9.209-5.37-11.303c-1.335-1.242-2.326-3.582-2.332-5.646c-0.004-1.497,0.49-2.807,1.41-3.787   c-0.865-2.449-3.006-8.719,0.436-16.355c2.5-5.548,5.426-8.36,8.696-8.36c2.03,0,3.638,1.122,4.621,2.051   c1.94-1.468,6.049-4.089,10.65-4.089c3.752,0,9.002,1.809,12.708,10.422c1.393,3.237,1.026,9.424,0.784,13.518   c-0.052,0.875-0.109,1.84-0.115,2.372c1.029,1.099,1.555,2.648,1.491,4.437c-0.075,2.078-0.932,4.223-2.104,5.385   c-0.808,3.128-2.824,7.454-5.815,11.154c7.827,2.683,24.824,8.623,26.666,10.241c1.908,1.676,4.139,12.194,5.329,18.491   c0.059,0.161,0.09,0.334,0.09,0.515c0,0.828-0.671,1.5-1.5,1.5c-0.007,0-0.013,0-0.02,0H80.166l-1.461,6.053   C78.542,92.143,77.939,92.617,77.247,92.617z M23.584,89.617h52.481l1.461-6.053c0.163-0.673,0.765-1.147,1.458-1.147h11.857   c-1.361-6.876-3.201-14.244-4.098-15.286c-1.354-1.046-15.314-6.122-27.737-10.345c-0.485-0.165-0.852-0.565-0.974-1.063   c-0.122-0.498,0.019-1.023,0.373-1.394c3.589-3.757,5.987-8.836,6.696-11.964c0.082-0.359,0.292-0.677,0.592-0.891   c0.441-0.314,1.26-1.736,1.321-3.452c0.027-0.769-0.101-1.817-0.867-2.451c-0.732-0.605-0.698-1.189-0.506-4.428   c0.198-3.345,0.567-9.57-0.545-12.154c-2.457-5.711-5.806-8.607-9.953-8.607c-5.1,0-9.749,4.217-9.795,4.259   c-0.319,0.293-0.746,0.433-1.18,0.387c-0.431-0.048-0.82-0.279-1.067-0.636c-0.01-0.014-1.42-1.972-3.229-1.972   c-1.928,0-4.045,2.342-5.961,6.593c-2.99,6.635-1.044,12.14-0.311,14.213c0.309,0.872,0.692,1.958-0.32,2.662   c-0.643,0.445-0.953,1.107-0.95,2.026c0.004,1.527,0.914,3.161,1.513,3.571c0.307,0.21,0.524,0.526,0.611,0.888   c0.415,1.726,2.089,7.701,6.188,12.141c0.339,0.367,0.473,0.878,0.357,1.364c-0.115,0.485-0.465,0.882-0.933,1.058   c-9.238,3.468-24.286,9.25-26.098,10.289c-0.858,1.18-2.997,8.402-4.711,15.191h11.406c0.693,0,1.295,0.475,1.458,1.148   L23.584,89.617z"/></g><text x="0" y="115" fill="#000000" font-size="5px" font-weight="bold" font-family="'Helvetica Neue', Helvetica, Arial-Unicode, Arial, Sans-serif">Created by H Alberto Gongora</text><text x="0" y="120" fill="#000000" font-size="5px" font-weight="bold" font-family="'Helvetica Neue', Helvetica, Arial-Unicode, Arial, Sans-serif">from the Noun Project</text></svg>